<mxfile host="Electron" modified="2023-05-19T06:13:44.971Z" agent="Mozilla/5.0 (Windows NT 10.0; Win64; x64) AppleWebKit/537.36 (KHTML, like Gecko) draw.io/21.2.8 Chrome/112.0.5615.165 Electron/24.2.0 Safari/537.36" etag="vNuEmZ6-foPjQFcyUVoo" version="21.2.8" type="device">
  <diagram name="Page-1" id="mUKjRgCA4-xuaB2_ap3b">
    <mxGraphModel dx="1361" dy="104" grid="1" gridSize="10" guides="1" tooltips="1" connect="1" arrows="1" fold="1" page="1" pageScale="1" pageWidth="1100" pageHeight="850" math="0" shadow="0">
      <root>
        <mxCell id="0" />
        <mxCell id="1" parent="0" />
        <mxCell id="SbtMAE0Drnt1JyP8O4nK-3" value="AWS Cloud" style="points=[[0,0],[0.25,0],[0.5,0],[0.75,0],[1,0],[1,0.25],[1,0.5],[1,0.75],[1,1],[0.75,1],[0.5,1],[0.25,1],[0,1],[0,0.75],[0,0.5],[0,0.25]];outlineConnect=0;gradientColor=none;html=1;whiteSpace=wrap;fontSize=12;fontStyle=0;container=1;pointerEvents=0;collapsible=0;recursiveResize=0;shape=mxgraph.aws4.group;grIcon=mxgraph.aws4.group_aws_cloud_alt;strokeColor=#232F3E;fillColor=none;verticalAlign=top;align=left;spacingLeft=30;fontColor=#232F3E;dashed=0;" vertex="1" parent="1">
          <mxGeometry x="220" y="1030" width="590" height="361.3" as="geometry" />
        </mxCell>
        <mxCell id="SbtMAE0Drnt1JyP8O4nK-7" value="&lt;font style=&quot;font-size: 18px;&quot;&gt;AWS Step Functions workflow&lt;/font&gt;" style="points=[[0,0],[0.25,0],[0.5,0],[0.75,0],[1,0],[1,0.25],[1,0.5],[1,0.75],[1,1],[0.75,1],[0.5,1],[0.25,1],[0,1],[0,0.75],[0,0.5],[0,0.25]];outlineConnect=0;gradientColor=none;html=1;whiteSpace=wrap;fontSize=12;fontStyle=0;container=1;pointerEvents=0;collapsible=0;recursiveResize=0;shape=mxgraph.aws4.group;grIcon=mxgraph.aws4.group_aws_step_functions_workflow;strokeColor=#CD2264;fillColor=none;verticalAlign=top;align=left;spacingLeft=30;fontColor=#CD2264;dashed=0;" vertex="1" parent="SbtMAE0Drnt1JyP8O4nK-3">
          <mxGeometry x="21" y="121" width="449" height="200" as="geometry" />
        </mxCell>
        <mxCell id="SbtMAE0Drnt1JyP8O4nK-24" style="edgeStyle=orthogonalEdgeStyle;rounded=0;orthogonalLoop=1;jettySize=auto;html=1;" edge="1" parent="SbtMAE0Drnt1JyP8O4nK-7" source="SbtMAE0Drnt1JyP8O4nK-9" target="SbtMAE0Drnt1JyP8O4nK-11">
          <mxGeometry relative="1" as="geometry" />
        </mxCell>
        <mxCell id="SbtMAE0Drnt1JyP8O4nK-9" value="Initiate&lt;br&gt;Export" style="outlineConnect=0;dashed=0;verticalLabelPosition=bottom;verticalAlign=top;align=center;html=1;shape=mxgraph.aws3.lambda_function;fillColor=#F58534;gradientColor=none;fontSize=14;" vertex="1" parent="SbtMAE0Drnt1JyP8O4nK-7">
          <mxGeometry x="39" y="67" width="64.25" height="66" as="geometry" />
        </mxCell>
        <mxCell id="SbtMAE0Drnt1JyP8O4nK-25" style="edgeStyle=orthogonalEdgeStyle;rounded=0;orthogonalLoop=1;jettySize=auto;html=1;" edge="1" parent="SbtMAE0Drnt1JyP8O4nK-7" source="SbtMAE0Drnt1JyP8O4nK-11" target="SbtMAE0Drnt1JyP8O4nK-20">
          <mxGeometry relative="1" as="geometry" />
        </mxCell>
        <mxCell id="SbtMAE0Drnt1JyP8O4nK-11" value="&lt;font style=&quot;font-size: 18px;&quot;&gt;Wait&lt;/font&gt;" style="rhombus;whiteSpace=wrap;html=1;" vertex="1" parent="SbtMAE0Drnt1JyP8O4nK-7">
          <mxGeometry x="189" y="60.00000000000004" width="80" height="80" as="geometry" />
        </mxCell>
        <mxCell id="SbtMAE0Drnt1JyP8O4nK-20" value="Download&lt;br&gt;Export" style="outlineConnect=0;dashed=0;verticalLabelPosition=bottom;verticalAlign=top;align=center;html=1;shape=mxgraph.aws3.lambda_function;fillColor=#F58534;gradientColor=none;fontSize=14;" vertex="1" parent="SbtMAE0Drnt1JyP8O4nK-7">
          <mxGeometry x="349" y="67.00000000000004" width="64.25" height="66" as="geometry" />
        </mxCell>
        <mxCell id="SbtMAE0Drnt1JyP8O4nK-13" value="Export&lt;br&gt;CSVs" style="sketch=0;outlineConnect=0;fontColor=#232F3E;gradientColor=none;fillColor=#3F8624;strokeColor=none;dashed=0;verticalLabelPosition=bottom;verticalAlign=top;align=center;html=1;fontSize=12;fontStyle=0;aspect=fixed;pointerEvents=1;shape=mxgraph.aws4.bucket_with_objects;" vertex="1" parent="SbtMAE0Drnt1JyP8O4nK-3">
          <mxGeometry x="510" y="187" width="65.38" height="68" as="geometry" />
        </mxCell>
        <mxCell id="SbtMAE0Drnt1JyP8O4nK-22" style="edgeStyle=orthogonalEdgeStyle;rounded=0;orthogonalLoop=1;jettySize=auto;html=1;" edge="1" parent="SbtMAE0Drnt1JyP8O4nK-3" source="SbtMAE0Drnt1JyP8O4nK-5" target="SbtMAE0Drnt1JyP8O4nK-7">
          <mxGeometry relative="1" as="geometry" />
        </mxCell>
        <mxCell id="SbtMAE0Drnt1JyP8O4nK-5" value="" style="sketch=0;points=[[0,0,0],[0.25,0,0],[0.5,0,0],[0.75,0,0],[1,0,0],[0,1,0],[0.25,1,0],[0.5,1,0],[0.75,1,0],[1,1,0],[0,0.25,0],[0,0.5,0],[0,0.75,0],[1,0.25,0],[1,0.5,0],[1,0.75,0]];outlineConnect=0;fontColor=#232F3E;gradientColor=#FF4F8B;gradientDirection=north;fillColor=#BC1356;strokeColor=#ffffff;dashed=0;verticalLabelPosition=bottom;verticalAlign=top;align=center;html=1;fontSize=12;fontStyle=0;aspect=fixed;shape=mxgraph.aws4.resourceIcon;resIcon=mxgraph.aws4.eventbridge;" vertex="1" parent="SbtMAE0Drnt1JyP8O4nK-3">
          <mxGeometry x="225.5" y="60.00000000000004" width="40" height="40" as="geometry" />
        </mxCell>
        <mxCell id="SbtMAE0Drnt1JyP8O4nK-6" value="&lt;font style=&quot;font-size: 15px;&quot;&gt;Weekly Cron Job&lt;/font&gt;" style="text;html=1;align=center;verticalAlign=middle;resizable=0;points=[];autosize=1;strokeColor=none;fillColor=none;" vertex="1" parent="SbtMAE0Drnt1JyP8O4nK-3">
          <mxGeometry x="175.5" y="30.000000000000046" width="140" height="30" as="geometry" />
        </mxCell>
        <mxCell id="SbtMAE0Drnt1JyP8O4nK-26" style="edgeStyle=orthogonalEdgeStyle;rounded=0;orthogonalLoop=1;jettySize=auto;html=1;" edge="1" parent="SbtMAE0Drnt1JyP8O4nK-3" source="SbtMAE0Drnt1JyP8O4nK-20" target="SbtMAE0Drnt1JyP8O4nK-13">
          <mxGeometry relative="1" as="geometry" />
        </mxCell>
        <mxCell id="SbtMAE0Drnt1JyP8O4nK-16" value="&lt;font style=&quot;font-size: 19px;&quot;&gt;Chargebee&lt;/font&gt;" style="text;html=1;align=center;verticalAlign=middle;resizable=0;points=[];autosize=1;strokeColor=none;fillColor=none;fontSize=14;strokeWidth=7;" vertex="1" parent="1">
          <mxGeometry x="59.980000000000025" y="1154" width="120" height="40" as="geometry" />
        </mxCell>
        <mxCell id="SbtMAE0Drnt1JyP8O4nK-27" style="edgeStyle=orthogonalEdgeStyle;rounded=0;orthogonalLoop=1;jettySize=auto;html=1;dashed=1;" edge="1" parent="1">
          <mxGeometry relative="1" as="geometry">
            <mxPoint x="169.95000000000005" y="1246.3333333333335" as="sourcePoint" />
            <mxPoint x="280" y="1247" as="targetPoint" />
          </mxGeometry>
        </mxCell>
        <mxCell id="SbtMAE0Drnt1JyP8O4nK-2" value="" style="shape=image;verticalLabelPosition=bottom;labelBackgroundColor=default;verticalAlign=top;aspect=fixed;imageAspect=0;image=data:image/png,iVBORw0KGgoAAAANSUhEUgAAAoAAAALRBAMAAAA5MQ9CAAAAFVBMVEVHcEz/azn/azX/azP/ajb/bTL/bDYxRWU3AAAABnRSTlMAIXnbqU7rTV/VAAAXRklEQVR42uydzZLbxg6FSYnkWprrcK0Z21wro4RrelzFtaqc4poSpX7/R4jtxL62MzPiDxo43QBWWSQVzicA5wBskklioSi2n+Pu4XO8//JPxmM8uId3h4N7JobD08N2Y4BejvTu3bPkfo7D071RfA7ex9qNjz/eG8Qf6b2bAu9bPN4buS/x21s3O/5QzzBdQO9fhkfF+O5qRxFPG0u+hXHRl4Z560hjuLfaXRof1OBb+cCnB6E3fDoQUve+//TCXdz8Kuc9LhGbmjeOJR5jrd7acUVj1Wt1/Kv2Oub4YOlnSSiXfpF1ws4JxSWOrUvt5CICW5050fjd1EN1Gaetk4+Al60rBxHBqvEbBxJXcy8aG2HrgGLYmHzokpLcwUVQnnrlAKMxflqmksw5Ixgjv0AM4f+cM4Kx8guAIDg/eILw/MAJrp0zgnHqbxAEA+Hn3MnmjxgddUD8nNsD7q9cUAG3WRC9+xvDdqt1oQXWjroKjp8bkPiVLsAAutO0dkHG2QxMHIY6dcEGhpmpwwUIYWYqF3KYAIcuxZkLPE4mIEHvFerwAYrOdGUE/CRnurWLIs7WAANtg3UsAIXaYBkNP5k2mLmIQsINuqiCf61QxQWQfSguIuPH7WVSF13wepk2PoCsXqaIkB/nZmvloozeRpBAiriIlB9XEecu2uhNgQMo4iJifhx2OnVRh387XcUN0PtMnEXOz/sRfhd9+D3tUcYPcDALCGwGWw0APZrBtQp+HnXEKYnGZhBIHcmdmvCjI50egM5mEMAUrDUB9PCqrUIVPw9WximLxhJwWVwsAaFWq50+gM48NJCV0ZiAlCm4UsmPMAVbnQDJFoOZUn5kblprAlINdGoTkCoF9SYgTQoqTkCaFNScgBQpqDoBKVJQdwIuT0HlCbg8BbUn4NIUVJ+AS1PQEnDZUsYScOFSpjN8i1IwN3jLUtAS8GtcLAGFnExh6JbVsJFbJiOWgN+jsQRcFidLQIEatinuh9jbFMdew2ail9WwmeifY2cSwuylDdnPcbYE5G2CtRFb1ATNwyxsguZhFjZB47WsCZqEPBMbS0C2cdgkZKGKVEbrmRh/QiE1WM/FEJSEDIenh+32W9/ebu8e3h6CkWHpCz08bF8ojbu3khPSMQQJGZ62Ny7v7qPUtTX4U8jjOK8lxLAHr+DL/QSn+lcNC7CATr4f0pAd4Ugf04rgm3V0h/lSx50xykPBJ4AQtIIvSx4qXdVoANl9yy5ZFn9hAeQ2gX8ufxQtZavjMaVS8qZfWM/j7tAq+M+EKJiScMQowvqOT8r3e30CWakybgKJX620wgAYYPkyTgA9kAlsEvro5AG2Iba//8cbaYBcu/xhk/iJlTDAIkj54JvkbwLkmSu9fjQmlwSYhs/v8x9RywFkqWDf3zvxSbAHqGDv/HwS7OUrmOUbtN4I9uIVzPQN31QGYBsLP29a3AtXcPCfn93LVrC3+YNtx7qX3WRx8vOz2WxEN1m7hDdK5j/BdwXvE+6oeGvIcwWfEv4gt4OCFXwW4EfvK+TuJg2JSGSMAMuoBMTPX3URq+B9IhWknf0qtQs/J3LBNckV8TVA+jbYC60Cd5IAKdtgI7NI6BPZoMuNo0gFX4T5Ea62ZMaQjTRAsuwYREzMPpEPok3xlXl5Ju5gqDt8L9ECNwgAif6+RsDE9AlGtH6TIY1WgUmVWKCCjygAKf7EVzSki7yAaXxGz29igPgRGI0d+yamQQK4fFZgb4FXKH6LlfLMPscdsQAuzRP2FtgnaOGrBWbxKwhFCnK3QLwEXDaPnLzvKkBnEKpa2zO3wAYR4BK5ZF5lQSbgkpH4ytwCd5gA5w+te94WeAXlNz8Fmbf5R1SAc1PwxNsCYRNwdgrueFsgbgLOTMFLwtoCgRNwZgr2vC0QOQHnpWDC2gKhE3BWCvYJawvETsA5Keh1TxtaAs5IwT5hbYE7dICTU9D7/dIQpuAFy/0+YW2BDT7AiX+1n+H6pRiSEIJojeCjBfZBAFxTtST6QzFJGFERmbK1zgSckDm9z/tU4Sbg6NS55SmoNwnXYACOfPphQ6hGcZjoaclz6++httGXgPiNebnMntZQxiMhI9Pnd6I+EKGEjCJ4mx/12fI+iYngCH7UGnIMDeBrr58eM9OvFEvIjZFk3BvWC+UV/HIWjXxFc6daQr7Hf179O/rzHLQackqCjR8/LjQ8bUb/d/o2qS/H9uHt4XB4uN8srX59Fcy12I5TQhj2EWNjow9grd4ELgyrYA8O0ipYSEPOiQG0Cp4YrZlAHA3RWMGpVfCyyKyCcTREYwWTDnIaK5hUhDcaAdocvCxyq+BlQXmwbWcirOBUL3UQ3pE7qQRIKMKNSoA2hsBMwirHEMpJWKWJoRRhlWMI4SSs08QQirBOE0MownsDaCZmeqxsE4OyStBpYghdjM45jtDF6ORH52KUtsDEWiAKQKUtcGUtEMTFaG2BhbVAEBejdBCme+PYRinA2jQEw8VclfJLTUNAbODObKC1QEkbqNVGk9lA7y1w+3D4xzAcHu+RHFMVBMD84y/3T99HZwOPPoXuuYt8jMwGesy+lza+H2IC6E9DPr1yEOIoz28F3gLTFnyHm2EDXMEPkAW0hoz4ec+RAJQrD2EHT+SjB8H2IkuQyEdfJduzaBXXsBqykv35mG0gvZ2YtKfcBw+QfrqfduBEbBmZoopwKf4Lsg4iFzEBkRYSon30Sb6z9DIAC0wR7iDaMCPARriA5YqYaBA5ShewmJepEEW4QLEC5G6LaRIO6dY+zSR3FlcQsRQEFOEcyE0FCbDDETO2Sa7BSECBtQzRJLcBSUD+LpjBuZgcqJmwjcKULqbA+S35JrkzkKr1IQI8IV1QiKMw4a9eQzkC35JHP8UTiBqvk6HZJeygKiLAUXgDIyHsMkIDEEvTWF/+A+ajK7CCYAJ4Afs9GWuYZpdwhapg1hpOsX5xovsLjDW8wgJIxI+xhmkAUvnoAN89QHPJVMNTSQXQBQbwCFbBjHeIC6Tfm/B99CeVAAs6gINKgBUdQDYjUyJpHiE/NiNDApBooU/6bUWuJlgBXWxBCXAICSBRuXSUALmaYAsEkJQf152ROlqAfUAAaWx/RguQ6bwv0C2lghagUwewIwa4CQfgBqebsKsIULEQ8+NRkRQHYE4N8KQM4Joa4CUYgAOkCPPI8AoHYKkXIE2ttOQAd6EAPEOKMM99kagBcviYDMYv5PQAOXzMGuZCM3qA51AAkpQKvYthWUpHDdCpAlgaQKxlFtNCq4ABWHkAuAsEIIlhrT0AbDQB9MCPYxSJG2BvAHUApGg1qWaAO1SAJwNoAFn3agaQOK4GEH6fZQANoAE0gAbQABpAA2gAbRIxgCEDzA2g7QNtoWorfQNoAO22Zkw31neBACSplECPdtjhomgAlh4AJpoAFgYQDmAwR3w1HzK3xxwQtkiaH7SxR70QAGp+2DDHUTt6I8jAzx64xthj4jgq+s4SDsAwXzphrz2BuGqarQf1RrAJByCNX+gC1BB7+RhG3dBY/jBff1cDtesQNQTqFaB1gBpiL6GFAKj5NcglUL8mnUVOIQHU/Cp4mrJB6if/xlEjwCK8FogFMMQPstgngSAANkiSxjgIJ/ZZNBCAZJ4hNBNjn4YE+c0Vf5zUPo+LccVYyw3WDzTXWACL0CqY6EjKBqoiOCuYqGZ2ZNdTItUDn/mnm5wyIE/ACLBHasoNK0Aa53VCuqAkQICUN2GDkhCq+X0A+kl5+VGdByC8ojyoBKR62wOl9+9CSkCqZ+0blBS8cgNEHN+XpODRAC5KwRM7P6JtAu1hsi6YDki2TRgwyqIXAFjB+ZgFXlCAH9WtxA1CCu4lABZ4Pmauvz8nAQOk7j6dfBWwDsP0/iEMBaGb5cjPAmRhFDDde9PE1W0jBJDqOAX99U9zqLskcICNbG3sxfhRPZ7Ri7bnqxw/qsczfIzxGbqAUI4iXo7kZYL/b24n7WcOzfD5kQE8ShE8y/Ije8zU0yCwQtaP5bcgGCap9HU/+CERDwesIl/j0yuL3GMSDUCP28y8xk0/Oift9YbY6rmLfEwwgmip73mayj/+Urz3CUoU4CryPbbvDv8k4uHxfpMk0QG8JEpjja8i2EH2NZmjVoIulCYYO8CTVoBURnDQCrAyFcHwMcwPGEQIUKuKkL147qwUIN3rRszHLIydAbQmOCdaa4LLorQmCOJjtDbBtTVBFB+jtQk6a4IoAJWOw501QRQZvhhAuLPSqvYxooeV41CRkwE0IyO5TtA6zdGtE5QaGUIZ1nlzk/J7PCqNTOqshmFkWOdGpjUjA6MiOocRSoBXjQBJP4tnKmI1LAtQ5UKhshrGURGVNby2Gl4WtN84NxWxGhYd5lTOw4XVMBJAhTstWhXReIOdFKDGJw9bq+FlUTqTESAVUWgFaVVEoxWkBajw9iatiiiUEeImqE9G1sQAG20AU2cyAqUi+qaRypmMvBB3Bzc83vQV1CoSjYyk9biunjlLwdfFYc/cBCNJwXr0AebWmZN5vbMNrAuZcPaq29E7gp7VSgfiZL685fbl94l2E7pSSg4whKNu1eu2f9KazilMweL14iwmzVcdOUD4Ux7pjeJsJzmLwqlzMt0NfZi2al/RAwQ30/mN3zqbWFNOWwp2Nx7zKyZas0pZCua3rrSbmBGFshTsbnmueuLNHg9NEDoFbz4nOXk+dapS8PaUMfmOt4cmiOsF85u/dDq5onw0QdhxpLvZ3aYD9NEEUSfi3HkA6KUJgqZg5TyUsJcmiLkXzJwXgF6aIORq+j9rgoEEoJcmiPgqimJUq55xcM8LQEA3Pe4an/lTdhO1PVI3XYwj007/S/w0QTQrk4/8jYvpAFM/AMGsTDWyyxQzzkzVfgBCWZlsbJPJZ3Tz0sWvI+Mvb7KGeDgig3dquhzfYsoZaugLIMyJy9UEkctm1FHliyDKPFJP0bgZWlj4AghiBotJDbqYLoUrbwAhzGA+8aedKCE+myBGEbcTHUI2PQNKF3ERF5Mvq5y8E1n7AyiuxKsZFvWbqg6jjZg/gOJPcc6qizdTZ6nKI0FZO13OnJHuHh42S/tEDLvV1cgETH+7X/RDpx4Bit4mbkd1lfzrvzYs2R/VLso2mI9aE+UEpstnDQu2wWf/rN3L5dcQ94rg2+Co6aglsa1eAUq5wXRMORQ0s2fpl6CMkKzHWBiiGxGZX4AyQ3ExwsIUVOsPzwBFvjtSjvghyYb3zjfBDQLA880k3VP2i9CluLz9KxKuMH0DFLjPWd5UkBn30UUWCkJm5u/2zqe7TSMI4IssOIPip7OMXJ1tE3PG9ovO9LnVGQnM9/8Ibdq4UR2xO7s7M+yA55ZDLPTT/J9hd238CTEXAshtmL/Dn5gCWYJaePaTI5iYuli4+wC7yRFcGKJYgvuIST85gnoDjrFjXT8Fgi/nr/PvtKZ5wE63diwET/RG+98wKNFxidHz1SsWgJT54PLjR+hKyT3+JLZnIkhV1V3/Yq/JsAEvCUbZOyaCRNurhwsUykG/QbELcMUFkKS7tbv0AfGQ10hIanY2gP0jeve5HOjgbsv2m81X9QK45iPY0YQPKIYDTZaw7BllQ2W+AE+2pJo+cALEM+O4tP15NHPwxutRElaCLU40vrae5idk8W3R99KUMC6tFUm7yeL5OCUzwdbXE746WOKOcPKQ9NziVZdcu7gybahsfC2i55cHZ4fjFgtoc4NdLwXhYu+mSWva2eFVP4o82BryqnQsFvW5buMf1fqRpLuxeMg/3PsV+v9GMMpilGeYGq72gL/lVq0iKCD2VUGWWc1zZqL34tX3XpIrIMHx3JZS5AMQo9UWnKY2TgbcoABM+vGlLfI8y94tOstW+baw+gNuOQbFMFCmNE4pRoMEcC0foEMNjKeA7B0FtolBaauAWSYzjBDxW1sq4NK5tEtk89u41Vh3lzOezezCSO3mALuhfHhmKjjYHSst7f7gE5tjsfxOrl2m0zACMU0tyhHBla3hH/zSw6VMfpXz93nThIG3uYSR4SMOzO9Da6PATMLIyWNU1mgVKJ2FCm58CgO9/jiNioUVxJ3THsxQDq0QmgyyMpnKSxU6gwNz69LsJuH9QFOy2uC/3ACKyWS62vNrHE0R1LFPWMrgt/FuzRmTHkeAIjKZJ//W5p0x6Lh2qsXjA/HrzOHTdeMtcBVsjZN4UGu9Nmc9EqZLK1uPC9gFAfFrzFHHfV+GUQXvVLzFVD4ovxaQdntsTTNXEtEtRA+/wpZoYKOxCvCdPZZ+D3wEN+/bBy86iINbC45p7BGSd8vYkzn/KtmFPYS2yG8suiJfYJ8KcVte43ZGFVQXprLvkhI9dwXp3EhZ1bpTeAKs40F3Annue/CpIN6L2NHeWekvAJSzLZgi8QNvplSQ5r/3uXN8Koi0G3XtEraGAdZyFlZbTvc39HERwE0G21jd+D9sXPp+GrYCcqpgw2e+0B1glENa+LwgV/TVxfwSWwE5VbDiUj/Nb3VAV0BGFTwyqZ/O3SboCsipgu7P+IrlbWN8BWRUQddyznKr+wScpdVYAOOwbdgidwEoeoKd2bPuebjg29t+yAbYRUbsbqhg47A9PqOfWOLl9fzTEUsbth5FDZbA5y3HLwg51WgqaJO43DoPXy6Vq2eRZVH0X2tcfmwqCLab1d7p77fD5T7xOdclD0BY5AO+NAwZo5+FyIYUINOylrmnFeUFroIvScIuZNpCQ/Drb4OTyyjzgTcUgNFbuuM39/u+eM5vfg7jsizL85fC+68eTWUWrQque+FysbS9Qm7pBrJrxDb2iyjGMgHsGhFIB/Ds1KeEl5Pjl1DMtUZPZUiCewpqgxED5FyV4eCHvoZgTmKnxW/HDlBoHBngl/T8AEXGkQF+i34MgIvJ8FP9KADl1SOdRW3PcvfdRPitwcUetlyJ4ney+hYNB0BRJ3o82rnyDQtAQcngk+VXUDwixog3ls3hhgmgECMevupgN64CCjHizjoTY1NAEUb8aP3wrNf3Bm/EtX1PLuUEGEk13+Fa9E6xStBGfO8wW2S/PTrc3qruoqFhy1HsIi96/HL53JlU/AAX4tRP0808qhEkxO70N7ftlFaNIvvggm/q+LzpOAADy2VMF4QN87tTI0lQc+InZ3s5qtFkLcT5afm1akTZC8EXaaaJ6ZgAQ8gG2yflw68ald/42SDkFCjdbuhRjSzjFsWg6+gWDkOnWRTFwEO0dLlCqwKQfcj0DC/CbkIAyJ9Pm2+fA7Z+KxWEsAaS4vl3mx9Xax5HFYiwVCRt8ZBnKeZPe1LBCEVF0kb/vB6Sf39hxPF2rWvXvv80QjHx5KtVQQnBmK72eyLTm1VpWAAJVlf9mkymU2Q2gfHTlptu4rMoYDxFplLBCfrLiB7bjkta7RaSDrp7eWNtdK/UHAgSeb+AEmjihNopTgLOQXlTah4EXRz9tpfMD5lgQ2C9QRVw1ARtAS5K+fxQCZ7w8YXPD5UgOj4J/DAJYuMLO34Q5IPQPAZ4dYMUfngEgXkMdDB4r8RIzBqGCdNK4b0ZGMBkgvwUzrDzDVEBayVNEHrUA1OLKLN2uG2q5MkrQR4Trf49v62ys+BOiZQlGsAoy1b5bVFe6ogCNP1RCRXKE/NquAuslFyh25vpoADbWkmWV2oVNG3mnJRwIVucaUAAn5R4iYjMuAUAFG6+xGacGgGe1ESEJhpXpiCyUdORHZ0TnLz6kcWSHwDL6asfkSf8MR4/zED9fnjCkgRgMtng+6tcUwCMppj7DcoWH+DHcvFBTVoQ0+rmUtOnS9XUJd4jAzxTQdM711NJaUrMRPqnF2xv1FxkgaGFH5LMGeHDMeT/LbCu8kzNTaItkgucsax8nGH9ye+7Gt66Mnz7hOdnyuknOS89rD6pffSHWwuIM0mYrQV0bVzxcPNpvlqKq7y4yLEtnq3fuJ6zfEcV//m33Lz/a3T5C7m4IXURVSTdAAAAAElFTkSuQmCC;" vertex="1" parent="1">
          <mxGeometry x="70" y="1194" width="99.95" height="112.59" as="geometry" />
        </mxCell>
        <mxCell id="SbtMAE0Drnt1JyP8O4nK-28" style="edgeStyle=orthogonalEdgeStyle;rounded=0;orthogonalLoop=1;jettySize=auto;html=1;exitX=0;exitY=0.5;exitDx=0;exitDy=0;exitPerimeter=0;" edge="1" parent="1">
          <mxGeometry relative="1" as="geometry">
            <mxPoint x="280" y="1254.9999999999998" as="sourcePoint" />
            <mxPoint x="169.95000000000005" y="1254.3333333333335" as="targetPoint" />
          </mxGeometry>
        </mxCell>
        <mxCell id="SbtMAE0Drnt1JyP8O4nK-32" style="edgeStyle=orthogonalEdgeStyle;rounded=0;orthogonalLoop=1;jettySize=auto;html=1;entryX=0.5;entryY=1;entryDx=0;entryDy=0;" edge="1" parent="1" source="SbtMAE0Drnt1JyP8O4nK-20" target="SbtMAE0Drnt1JyP8O4nK-2">
          <mxGeometry relative="1" as="geometry">
            <Array as="points">
              <mxPoint x="622" y="1340" />
              <mxPoint x="120" y="1340" />
            </Array>
          </mxGeometry>
        </mxCell>
      </root>
    </mxGraphModel>
  </diagram>
</mxfile>
